<svg xmlns="http://www.w3.org/2000/svg" width="{dim}" height="{dim}">

<defs>
    <style>

        g {
            shape-rendering: crispEdges;
        }

        .drw {
            fill: none;
            stroke-linecap: square;
            stroke-linejoin: square;
            stroke-width: {stroke-width};
        }

        .scn {
            fill: none;
            stroke: none;
        }

    </style>
</defs>

<g class="scn" transform="{scn-transform}">
    <rect height="100%" width="100%" />
    <g class="drw" stroke="white" transform="{drw-transform-glow}">
        <g transform="translate(0,0)"><path d="M5,0 L5,6 L0,6 L0,2 L5,2" /></g>
        <g transform="translate(3,4)"><path d="M0,0 L0,4 L5,4 L5,0 L0,0" /></g>
        <g transform="translate(6,6)"><path d="M0,0 L0,4 L5,4 L5,0" /></g>
        <g transform="translate(9,8)"><path d="M0,0 L0,5 L4,5" /></g>
    </g>
    <g class="drw" stroke="black" transform="{drw-transform-main}">
        <g transform="translate(0,0)"><path d="M5,0 L5,6 L0,6 L0,2 L5,2" /></g>
        <g transform="translate(3,4)"><path d="M0,0 L0,4 L5,4 L5,0 L0,0" /></g>
        <g transform="translate(6,6)"><path d="M0,0 L0,4 L5,4 L5,0" /></g>
        <g transform="translate(9,8)"><path d="M0,0 L0,5 L4,5" /></g>
    </g>

    Sorry, your browser does not support SVG!
</g>

</svg>
